<mxfile host="app.diagrams.net" modified="2023-08-13T15:40:50.471Z" agent="Mozilla/5.0 (Macintosh; Intel Mac OS X 10_15_7) AppleWebKit/537.36 (KHTML, like Gecko) Chrome/115.0.0.0 Safari/537.36" etag="Ia-O7wyGVRwuRRNYPvK-" version="21.6.8" type="github">
  <diagram name="第 1 页" id="1Zh_8u3cO-kG5wOwG8i3">
    <mxGraphModel dx="886" dy="726" grid="1" gridSize="10" guides="1" tooltips="1" connect="1" arrows="1" fold="1" page="1" pageScale="1" pageWidth="827" pageHeight="1169" math="0" shadow="0">
      <root>
        <mxCell id="0" />
        <mxCell id="1" parent="0" />
        <mxCell id="aOfLWLgkgJB7YeHArjSf-1" value="" style="shape=datastore;html=1;labelPosition=center;verticalLabelPosition=bottom;align=center;verticalAlign=top;strokeColor=#008ADB;fillColor=none;fontColor=#ffffff;" vertex="1" parent="1">
          <mxGeometry x="630" y="140" width="40" height="40" as="geometry" />
        </mxCell>
        <mxCell id="aOfLWLgkgJB7YeHArjSf-2" value="click" style="ellipse;whiteSpace=wrap;html=1;fillColor=#089ae2;strokeColor=#006EAF;fontColor=#ffffff;" vertex="1" parent="1">
          <mxGeometry x="60" y="220" width="70" height="70" as="geometry" />
        </mxCell>
        <mxCell id="aOfLWLgkgJB7YeHArjSf-3" value="" style="shape=flexArrow;endArrow=classic;html=1;rounded=0;fillColor=#60a917;strokeColor=#2D7600;endWidth=26;endSize=6.36;" edge="1" parent="1">
          <mxGeometry width="50" height="50" relative="1" as="geometry">
            <mxPoint x="140" y="254.5" as="sourcePoint" />
            <mxPoint x="260" y="254.5" as="targetPoint" />
          </mxGeometry>
        </mxCell>
        <mxCell id="aOfLWLgkgJB7YeHArjSf-4" value="launch" style="text;html=1;strokeColor=none;fillColor=none;align=center;verticalAlign=middle;whiteSpace=wrap;rounded=0;" vertex="1" parent="1">
          <mxGeometry x="160" y="260" width="60" height="30" as="geometry" />
        </mxCell>
        <mxCell id="aOfLWLgkgJB7YeHArjSf-5" value="&lt;font color=&quot;#ffffff&quot; style=&quot;font-size: 14px;&quot;&gt;WebView&lt;/font&gt;" style="rounded=1;whiteSpace=wrap;html=1;fillColor=#ffcd28;gradientColor=#ffa500;strokeColor=#d79b00;" vertex="1" parent="1">
          <mxGeometry x="270" y="220" width="120" height="60" as="geometry" />
        </mxCell>
        <mxCell id="aOfLWLgkgJB7YeHArjSf-8" style="edgeStyle=orthogonalEdgeStyle;rounded=0;orthogonalLoop=1;jettySize=auto;html=1;exitX=0.55;exitY=0.95;exitDx=0;exitDy=0;exitPerimeter=0;fillColor=#1ba1e2;strokeColor=#006EAF;strokeWidth=2;" edge="1" parent="1" source="aOfLWLgkgJB7YeHArjSf-6">
          <mxGeometry relative="1" as="geometry">
            <mxPoint x="456" y="240" as="targetPoint" />
          </mxGeometry>
        </mxCell>
        <mxCell id="aOfLWLgkgJB7YeHArjSf-6" value="&lt;font style=&quot;font-size: 24px;&quot;&gt;CDN&lt;/font&gt;" style="ellipse;shape=cloud;whiteSpace=wrap;html=1;fillColor=#1ba1e2;fontColor=#ffffff;strokeColor=#006EAF;" vertex="1" parent="1">
          <mxGeometry x="390" y="90" width="120" height="80" as="geometry" />
        </mxCell>
        <mxCell id="aOfLWLgkgJB7YeHArjSf-7" value="" style="shape=flexArrow;endArrow=classic;html=1;rounded=0;fillColor=#60a917;strokeColor=#2D7600;endWidth=26;endSize=6.36;" edge="1" parent="1">
          <mxGeometry width="50" height="50" relative="1" as="geometry">
            <mxPoint x="400" y="254.5" as="sourcePoint" />
            <mxPoint x="520" y="254.5" as="targetPoint" />
          </mxGeometry>
        </mxCell>
        <mxCell id="aOfLWLgkgJB7YeHArjSf-9" value=".html&lt;br&gt;.css&lt;br&gt;.js" style="text;html=1;strokeColor=none;fillColor=none;align=left;verticalAlign=middle;whiteSpace=wrap;rounded=0;" vertex="1" parent="1">
          <mxGeometry x="460" y="180" width="60" height="30" as="geometry" />
        </mxCell>
        <mxCell id="aOfLWLgkgJB7YeHArjSf-11" value="" style="edgeStyle=orthogonalEdgeStyle;rounded=0;orthogonalLoop=1;jettySize=auto;html=1;fillColor=#1ba1e2;strokeColor=#006EAF;" edge="1" parent="1">
          <mxGeometry relative="1" as="geometry">
            <mxPoint x="190" y="170" as="sourcePoint" />
            <mxPoint x="190" y="240" as="targetPoint" />
          </mxGeometry>
        </mxCell>
        <mxCell id="aOfLWLgkgJB7YeHArjSf-12" value="&lt;font color=&quot;#ffffff&quot; style=&quot;font-size: 16px;&quot;&gt;NativeInit&lt;/font&gt;" style="text;html=1;strokeColor=none;fillColor=none;align=center;verticalAlign=middle;whiteSpace=wrap;rounded=0;" vertex="1" parent="1">
          <mxGeometry x="150" y="115" width="60" height="30" as="geometry" />
        </mxCell>
        <mxCell id="aOfLWLgkgJB7YeHArjSf-13" value="&lt;font color=&quot;#ffffff&quot; style=&quot;font-size: 17px;&quot;&gt;Page&lt;/font&gt;" style="rounded=1;whiteSpace=wrap;html=1;fillColor=#5690e1;gradientColor=#1e64cc;strokeColor=#6c8ebf;" vertex="1" parent="1">
          <mxGeometry x="530" y="225" width="90" height="55" as="geometry" />
        </mxCell>
        <mxCell id="aOfLWLgkgJB7YeHArjSf-14" value="" style="shape=flexArrow;endArrow=classic;html=1;rounded=0;fillColor=#60a917;strokeColor=#2D7600;endWidth=26;endSize=6.36;" edge="1" parent="1">
          <mxGeometry width="50" height="50" relative="1" as="geometry">
            <mxPoint x="630" y="254.5" as="sourcePoint" />
            <mxPoint x="760" y="255" as="targetPoint" />
          </mxGeometry>
        </mxCell>
        <mxCell id="aOfLWLgkgJB7YeHArjSf-15" value="&lt;font color=&quot;#ffffff&quot;&gt;ACTIVE&lt;/font&gt;" style="ellipse;whiteSpace=wrap;html=1;aspect=fixed;fillColor=#e55e15;gradientColor=#ffa500;strokeColor=#d79b00;" vertex="1" parent="1">
          <mxGeometry x="770" y="215" width="80" height="80" as="geometry" />
        </mxCell>
        <mxCell id="aOfLWLgkgJB7YeHArjSf-16" value="" style="strokeWidth=2;html=1;shape=mxgraph.flowchart.multi-document;whiteSpace=wrap;fillColor=#1ba1e2;fontColor=#ffffff;strokeColor=#006EAF;" vertex="1" parent="1">
          <mxGeometry x="150" y="100" width="110" height="70" as="geometry" />
        </mxCell>
        <mxCell id="aOfLWLgkgJB7YeHArjSf-17" value="&lt;font style=&quot;font-size: 16px;&quot; color=&quot;#ffffff&quot;&gt;NativeInit&lt;/font&gt;" style="text;html=1;strokeColor=none;fillColor=none;align=center;verticalAlign=middle;whiteSpace=wrap;rounded=0;" vertex="1" parent="1">
          <mxGeometry x="170" y="120" width="60" height="30" as="geometry" />
        </mxCell>
        <mxCell id="aOfLWLgkgJB7YeHArjSf-18" value="refresh" style="text;html=1;strokeColor=none;fillColor=none;align=center;verticalAlign=middle;whiteSpace=wrap;rounded=0;" vertex="1" parent="1">
          <mxGeometry x="650" y="260" width="60" height="30" as="geometry" />
        </mxCell>
        <mxCell id="aOfLWLgkgJB7YeHArjSf-19" value="&lt;font style=&quot;font-size: 11px;&quot;&gt;LocalStorage&lt;/font&gt;" style="text;html=1;strokeColor=none;fillColor=none;align=center;verticalAlign=middle;whiteSpace=wrap;rounded=0;" vertex="1" parent="1">
          <mxGeometry x="630" y="115" width="40" height="20" as="geometry" />
        </mxCell>
        <mxCell id="aOfLWLgkgJB7YeHArjSf-22" value="" style="endArrow=classic;startArrow=classic;html=1;rounded=0;entryX=0.5;entryY=1;entryDx=0;entryDy=0;fillColor=#1ba1e2;strokeColor=#006EAF;" edge="1" parent="1" target="aOfLWLgkgJB7YeHArjSf-1">
          <mxGeometry width="50" height="50" relative="1" as="geometry">
            <mxPoint x="649.2" y="240" as="sourcePoint" />
            <mxPoint x="650" y="180" as="targetPoint" />
          </mxGeometry>
        </mxCell>
        <mxCell id="aOfLWLgkgJB7YeHArjSf-23" value=".json" style="text;html=1;align=center;verticalAlign=middle;resizable=0;points=[];autosize=1;strokeColor=none;fillColor=none;" vertex="1" parent="1">
          <mxGeometry x="640" y="190" width="50" height="30" as="geometry" />
        </mxCell>
        <mxCell id="aOfLWLgkgJB7YeHArjSf-24" value="DataServer" style="points=[[0.25,0,0],[0.5,0,0],[0.75,0,0],[1,0.25,0],[1,0.5,0],[1,0.75,0],[0.75,1,0],[0.5,1,0],[0.25,1,0],[0,0.75,0],[0,0.5,0],[0,0.25,0]];rounded=1;dashed=1;dashPattern=5 2 1 2;labelPosition=center;verticalLabelPosition=middle;align=center;verticalAlign=middle;fontSize=8;html=1;whiteSpace=wrap;strokeColor=#3399FF;" vertex="1" parent="1">
          <mxGeometry x="690" y="145" width="70" height="20" as="geometry" />
        </mxCell>
        <mxCell id="aOfLWLgkgJB7YeHArjSf-25" value="" style="endArrow=classic;startArrow=classic;html=1;rounded=0;fillColor=#1ba1e2;strokeColor=#006EAF;" edge="1" parent="1">
          <mxGeometry width="50" height="50" relative="1" as="geometry">
            <mxPoint x="710" y="240" as="sourcePoint" />
            <mxPoint x="710" y="170" as="targetPoint" />
          </mxGeometry>
        </mxCell>
        <mxCell id="aOfLWLgkgJB7YeHArjSf-26" value=".json" style="text;html=1;align=center;verticalAlign=middle;resizable=0;points=[];autosize=1;strokeColor=none;fillColor=none;" vertex="1" parent="1">
          <mxGeometry x="700" y="190" width="50" height="30" as="geometry" />
        </mxCell>
        <mxCell id="aOfLWLgkgJB7YeHArjSf-27" value="process&lt;br&gt;runtime" style="text;html=1;strokeColor=none;fillColor=none;align=center;verticalAlign=middle;whiteSpace=wrap;rounded=0;" vertex="1" parent="1">
          <mxGeometry x="190" y="185" width="50" height="25" as="geometry" />
        </mxCell>
        <mxCell id="aOfLWLgkgJB7YeHArjSf-30" value="" style="shape=curlyBracket;whiteSpace=wrap;html=1;rounded=1;flipH=1;labelPosition=right;verticalLabelPosition=middle;align=left;verticalAlign=middle;direction=north;" vertex="1" parent="1">
          <mxGeometry x="90" y="295" width="260" height="25" as="geometry" />
        </mxCell>
        <mxCell id="aOfLWLgkgJB7YeHArjSf-31" value="终端耗时" style="text;html=1;strokeColor=none;fillColor=none;align=center;verticalAlign=middle;whiteSpace=wrap;rounded=0;" vertex="1" parent="1">
          <mxGeometry x="190" y="320" width="60" height="30" as="geometry" />
        </mxCell>
        <mxCell id="aOfLWLgkgJB7YeHArjSf-32" value="" style="shape=curlyBracket;whiteSpace=wrap;html=1;rounded=1;flipH=1;labelPosition=right;verticalLabelPosition=middle;align=left;verticalAlign=middle;direction=north;" vertex="1" parent="1">
          <mxGeometry x="350" y="300" width="460" height="15" as="geometry" />
        </mxCell>
        <mxCell id="aOfLWLgkgJB7YeHArjSf-33" value="页面耗时" style="text;html=1;strokeColor=none;fillColor=none;align=center;verticalAlign=middle;whiteSpace=wrap;rounded=0;" vertex="1" parent="1">
          <mxGeometry x="540" y="330" width="60" height="30" as="geometry" />
        </mxCell>
        <mxCell id="aOfLWLgkgJB7YeHArjSf-34" value="" style="shape=curlyBracket;whiteSpace=wrap;html=1;rounded=1;flipH=1;labelPosition=right;verticalLabelPosition=middle;align=left;verticalAlign=middle;direction=north;" vertex="1" parent="1">
          <mxGeometry x="90" y="360" width="720" height="30" as="geometry" />
        </mxCell>
        <mxCell id="aOfLWLgkgJB7YeHArjSf-35" value="首屏耗时" style="text;html=1;strokeColor=none;fillColor=none;align=center;verticalAlign=middle;whiteSpace=wrap;rounded=0;" vertex="1" parent="1">
          <mxGeometry x="420" y="400" width="60" height="30" as="geometry" />
        </mxCell>
      </root>
    </mxGraphModel>
  </diagram>
</mxfile>
